<?xml version="1.0" encoding="UTF-8" standalone="no"?>
<svg xmlns:dc="http://purl.org/dc/elements/1.1/" xmlns:cc="http://creativecommons.org/ns#" xmlns:rdf="http://www.w3.org/1999/02/22-rdf-syntax-ns#" xmlns:svg="http://www.w3.org/2000/svg" xmlns="http://www.w3.org/2000/svg" xmlns:sodipodi="http://sodipodi.sourceforge.net/DTD/sodipodi-0.dtd" xmlns:inkscape="http://www.inkscape.org/namespaces/inkscape" version="1" width="1333.333" height="1333.333" viewBox="0 0 1000.000000 1000.000000" id="svg6" sodipodi:docname="safari-pinned-tab.svg" inkscape:version="1.0.2-2 (e86c870879, 2021-01-15)">
  <metadata id="metadata12">
    <rdf:RDF>
      <cc:Work rdf:about="">
        <dc:format>image/svg+xml</dc:format>
        <dc:type rdf:resource="http://purl.org/dc/dcmitype/StillImage" />
        <dc:title></dc:title>
      </cc:Work>
    </rdf:RDF>
  </metadata>
  <defs id="defs10" />
  <sodipodi:namedview pagecolor="#ffffff" bordercolor="#666666" borderopacity="1" objecttolerance="10" gridtolerance="10" guidetolerance="10" inkscape:pageopacity="0" inkscape:pageshadow="2" inkscape:window-width="3440" inkscape:window-height="1417" id="namedview8" showgrid="false" inkscape:zoom="0.568579" inkscape:cx="-32.135146" inkscape:cy="393.32517" inkscape:window-x="-8" inkscape:window-y="-8" inkscape:window-maximized="1" inkscape:current-layer="svg6" />
  <path d="m 199.8,96.7 c -0.3,25.7 -0.6,30.3 -2.1,33.7 -4.3,9.7 -9.7,9.1 -27.6,-3.1 -12,-8.3 -20.2,-11.3 -24.4,-9.2 -7.6,3.9 -10.6,11.1 -13.2,31.2 -2.8,22 -1.2,51.9 3.6,67.6 1.7,5.8 2.9,7.4 9.9,14.3 6.8,6.7 8.5,7.8 11.4,7.8 4.8,0 10.7,-2.7 20.6,-9.5 11,-7.5 18.7,-11.2 20.3,-9.6 0.9,0.9 1.3,87.1 1.5,352.6 L 200,924 199.5081,932.45373 209,933 H 637 V 847 L 636.86048,838.10134 629,839 h -6 c -3.3,0 -6,-0.3 -6,-0.8 0,-0.4 5.7,-4.4 12.5,-8.9 L 642,821 h 175 v -85 l -32,-1.4 c 0,0 9.2,-6.6 18.6,-13 l 17.2,-11.6 23.8,-0.2 23.9,-0.3 0.3,-18.5 c 0.4,-28 0.72129,-43.65271 -10.72871,-44.45271 C 846.62129,645.74729 837.3,653.7 830.9,657.4 c -12.9,7.3 -16.9,8.2 -24.6,-7.3 -7.7,-15.5 -7.8,-62 -1.9,-81.4 1.7,-5.8 5.7,-11.2 9.7,-13.3 2.7,-1.4 3.5,-1.4 8.2,0 2.9,0.9 10.4,5 16.7,9.1 16.4,10.7 21.5,11.9 25.6,5.8 3.4,-5.1 4.6,-16.8 4.2,-42.8 l -0.3,-23 -4.2,-0.3 -27.8,-0.2 H 817.9 L 792.5,521 767,538 H 739.1 L 713.7,521 688.3,504.1 652.9,504 c -33.9,-0.2 -35.7,-0.1 -41.9,2 -8.2,2.8 -11.2,4.3 -17.8,9.3 -9.3,6.8 -18.4,18.6 -21.2,27.3 -0.7,2.1 -1.7,5 -2.3,6.4 -1.5,3.3 -2.1,79.9 -0.8,90 0.5,4.1 1.4,9.2 1.9,11.2 1.4,5.4 0.36165,16.52089 15.21165,37.07089 C 600.86165,707.82089 618.5,709.9 666,710 h 27.4 l 12.6,8.2 c 6.9,4.6 13,8.8 13.7,9.4 0.6,0.6 3.5,2.6 6.4,4.5 l 5.4,3.4 -6,0.3 c -3.3,0.2 -31.4,0.1 -62.5,-0.1 -63.5,-0.4 -68.3254,0.95606 -89.2754,-28.09394 C 552.7746,678.55606 559.8,668.1 560.9,607 c 1.2,-61.4 -2.4657,-63.22856 4.4343,-76.42856 6.9,-13.2 18.9657,-19.27144 24.9657,-23.37144 5.5,-3.8 18.6,-9.4 22.5,-9.5 1.5,-0.1 3,-0.5 3.3,-1 0.3,-0.5 17.1,-0.8 37.2,-0.8 h 36.6 l 25.5,17.1 25.6,17 h 24.3 l 25.9,-17.3 25.9,-17.2 -0.3,-25.5 c -0.3,-21.4 -0.7,-26.1 -2.1,-29.4 -1.9,-4.2 -4.3,-6.5 -8.75,-8.1 -4.45,-1.6 -8.55,1.3 -21.75,8.8 -18.2822,11.88303 -29.31091,7.21002 -32.8,-7.8 -2.8,-11.8 -2.8,-61.2 0,-73 3.2,-14 8.1,-20.6 15.3,-20.5 4.7,0.1 9.5,2.4 20.2,9.3 17.3,11.4 21,12.6 24.9,8.4 4.3,-4.5 4.6,-6.9 5,-38 L 817.2,290 H 638.5 l -25.2,17 -25.2,17 h -30.2 l -25.3,-17.1 -25.2,-17 -35.5,0.3 c -33.7,0.3 -35.7,0.4 -41.6,2.5 -18.4,6.7 -31.6,19.6 -38.1,37.4 l -2.7,7.4 -0.3,206.8 c -0.2,227.9 -1.75606,217.32426 8.44394,239.92426 10.2,22.6 21.35606,25.67574 29.85606,29.87574 12.3,6.1 18.6,6.9 54.3,6.9 h 30.7 l 12.7,8.3 c 7.1,4.5 12.8,8.6 12.8,9 0,0.5 -24.6,0.7 -54.7,0.5 l -54.8,-0.3 -10,-3.5 c -11.6,-4.1 -20.3,-9.5 -24.8,-15.5 -4.9,-6.4 -9.5,-16.1 -11.7,-24.9 -2,-7.8 -2,-11.1 -2,-230.6 0,-219.1 0,-222.8 2,-230.6 3.2,-12.9 8.2,-21.7 18,-31.5 9.3,-9.4 17,-14.2 28.5,-18 6.7,-2.2 8.6,-2.3 43.9,-2.7 l 36.9,-0.3 25.6,17 25.6,17.1 h 25 l 25.8,-17.2 25.9,-17.2 -0.4,-25.1 c -0.3,-23.2 2.61453,-26.93142 -7.83547,-36.58142 C 618.51453,209.26858 609.3,214.3 603,218 c -15.3,9.1 -22.8,13 -25.1,13 -5.4,0 -8,-12.7 -8.6,-43.5 -0.7,-33.7 2.1,-50.9 9.4,-58.2 2.8,-2.8 4.1,-3.3 7.9,-3.3 5.3,0 8.8,1.7 23,11 16.1,10.6 20.7,11 24.7,2.3 2.1,-4.5 2.2,-6.4 2.5,-34.6 L 637.2,75 636.89442,67.421356 629,67 H 200.2 Z" id="path2" sodipodi:nodetypes="cccccccscsccccccccsscccccccccccccccccccccccccccccccccccccccccccccccccssccccccccccccccccccccccccccccccsccscccccscccccccccccccscsscccccccc" />
</svg>
